<?xml version="1.0" encoding="UTF-8" standalone="no"?>
<!-- Generator: Adobe Illustrator 19.0.0, SVG Export Plug-In . SVG Version: 6.00 Build 0)  -->

<svg
   version="1.1"
   id="Слой_1"
   x="0px"
   y="0px"
   viewBox="0 0 288.3 46.1"
   style="enable-background:new 0 0 288.3 46.1;"
   xml:space="preserve"
   sodipodi:docname="logo-ru-x.svg"
   inkscape:version="1.4 (86a8ad7, 2024-10-11)"
   xmlns:inkscape="http://www.inkscape.org/namespaces/inkscape"
   xmlns:sodipodi="http://sodipodi.sourceforge.net/DTD/sodipodi-0.dtd"
   xmlns="http://www.w3.org/2000/svg"
   xmlns:svg="http://www.w3.org/2000/svg"><defs
   id="defs13" /><sodipodi:namedview
   id="namedview13"
   pagecolor="#ffffff"
   bordercolor="#000000"
   borderopacity="0.25"
   inkscape:showpageshadow="2"
   inkscape:pageopacity="0.0"
   inkscape:pagecheckerboard="0"
   inkscape:deskcolor="#d1d1d1"
   inkscape:zoom="4.3706706"
   inkscape:cx="143.68504"
   inkscape:cy="5.1479514"
   inkscape:window-width="1920"
   inkscape:window-height="976"
   inkscape:window-x="-8"
   inkscape:window-y="-8"
   inkscape:window-maximized="1"
   inkscape:current-layer="Слой_1" />
<style
   type="text/css"
   id="style1">
	.st0{fill-rule:evenodd;clip-rule:evenodd;fill:#050403;}
	.st1{fill-rule:evenodd;clip-rule:evenodd;fill:#DB673B;}
	.st2{fill-rule:evenodd;clip-rule:evenodd;fill:#000001;}
	.st3{fill-rule:evenodd;clip-rule:evenodd;fill:#858584;}
</style>
<path
   class="st0"
   d="M35.7,10.9c-2.9-1.7-5.8-3-9.2-2.9c0.8,1.2,1,2.8,1,3.7C29.9,10.7,32.2,10.4,35.7,10.9L35.7,10.9z M24.8,40.9  c3-1.4,5.2-3.4,6.9-6.1c-1.5-0.1-2.8-0.6-3.8-1.2C27.7,35.2,26.6,38.6,24.8,40.9L24.8,40.9z M8.5,22.9c-2.1-1.5-3.9-3.9-4.7-6.2  c-0.3,3.2,0.3,6.2,1.9,9.1C6.4,24.6,7.3,23.6,8.5,22.9L8.5,22.9z M7.2,32.8c0.1-4.5,3.8-8.2,8.4-8.1c5.3,0.2,8.1,3.5,8.2,8.2  c0.1,5-3.8,8.1-8.3,8.2C11.2,41.1,7.2,37.6,7.2,32.8L7.2,32.8z M41.1,22.7c-0.1-4.6-3.8-8.1-8.4-8c-4.5,0.1-8,3.8-8,8.4  c0.1,4.5,3.9,8.3,8.4,8C38.6,30.8,41.3,26.7,41.1,22.7L41.1,22.7z M15.3,21c-4,0.2-8.1-3.2-8.1-8.3c0-4.5,3.8-8.1,8.3-8.1  c4.5,0,8.3,3.8,8.2,8.2C23.7,17.8,19.4,21.4,15.3,21L15.3,21z M44.8,22c0,5.2-2.1,9.2-6.9,11.6c-0.9,0.4-1.6,1.3-2.1,2.1  c-2.2,3.6-5.1,6.6-8.9,8.5c-4.4,2.2-9,2.5-13.6,0.6c-2.1-0.9-4.1-1.7-5.8-3.3c-2.8-2.8-4.2-6.1-3.7-10.1C3.8,30.7,3.4,29.8,3,29  c-2.5-4.7-3.6-9.6-2.6-15C1.6,7.6,8.6,1.7,14.4,1c2.6-0.3,5.1,0.4,7.3,1.8c1.1,0.7,2.2,1,3.6,1c4.3,0.2,8.5,1.1,12.2,3.7  C42.5,11,44.8,15.9,44.8,22z"
   id="path1"
   style="fill:#a6adbb;fill-opacity:1" />
<path
   class="st1"
   d="M15.2,5C11,5,7.6,8.4,7.6,12.6c0,4.2,3.4,7.6,7.6,7.6c4.2,0,7.6-3.4,7.6-7.6C22.7,8.4,19.3,5,15.2,5L15.2,5z   M15.2,25.2c-6.9,0-12.6-5.6-12.6-12.6C2.6,5.6,8.2,0,15.2,0s12.6,5.6,12.6,12.6C27.7,19.5,22.1,25.2,15.2,25.2z"
   id="path2" />
<path
   class="st1"
   d="M33.4,15.1c-4.2,0-7.6,3.4-7.6,7.6c0,4.2,3.4,7.6,7.6,7.6c4.2,0,7.6-3.4,7.6-7.6C41,18.5,37.6,15.1,33.4,15.1  L33.4,15.1z M33.4,35.3c-6.9,0-12.6-5.6-12.6-12.6s5.6-12.6,12.6-12.6S46,15.7,46,22.7S40.4,35.3,33.4,35.3z"
   id="path3" />
<path
   class="st1"
   d="M15.5,25.6C11.4,25.6,8,29,8,33.2c0,4.2,3.4,7.6,7.6,7.6c4.2,0,7.6-3.4,7.6-7.6C23.1,29,19.7,25.6,15.5,25.6  L15.5,25.6z M15.5,45.7C8.6,45.7,3,40.1,3,33.2c0-6.9,5.6-12.6,12.6-12.6c6.9,0,12.6,5.6,12.6,12.6C28.1,40.1,22.5,45.7,15.5,45.7z"
   id="path4" />
<g
   id="g13">
	
	<path
   class="st3"
   d="M266.9,9.1L263.5,37h12.2c5.9,0,10.8-1.5,11.5-7.3l0.4-3.1c0.7-5.6-3.2-7.6-9.1-7.6c-1.4,0-4.8,0.2-5,0.2   l1.2-10H266.9L266.9,9.1z M272.7,24h4.4c1.6,0,3,0.3,2.7,2.6l-0.4,3.1c-0.3,2.3-1.8,2.7-3.4,2.7h-4.4L272.7,24z"
   id="path6"
   style="fill:#a6adbb;fill-opacity:1;stroke:#000000;stroke-opacity:1" />
	<path
   class="st3"
   d="M238.1,31.5c-0.1,0.9-0.2,1.8-2.4,2.1l-0.4,3.5c2.3,0.4,2.7,0.4,3.2,0.4c3.8,0,6.7-1.3,7.4-6.6l2.1-16.7h5.1   L250.2,37h7.7l3.4-27.9h-20.5L238.1,31.5z"
   id="path7"
   style="fill:#a6adbb;fill-opacity:1;stroke:#000000;stroke-opacity:1" />
	<path
   class="st3"
   d="M232,37l0.6-5h-12.1l0.8-6.7h11.1l0.6-5.1H222l0.8-6.2h12.1l0.6-5H217c-0.7,0-1.3,0.5-1.4,1.2l-3.2,25.8   c0,0.2,0,0.5,0.2,0.7c0.2,0.2,0.4,0.3,0.6,0.3H232z"
   id="path8"
   style="fill:#a6adbb;fill-opacity:1;stroke:#000000;stroke-opacity:1" />
	<path
   class="st3"
   d="M197.3,37c5.8,0,10.7-1.5,11.4-7.3l0.4-3.1c0.7-5.5-2.6-6.8-6.7-7.2c-0.9-0.1-2.1-0.2-7.4-0.2l0.6-5.2h11.1   l0.6-4.9H190c-0.9,0-1.6,0.6-1.7,1.5l-3.1,25.9c0,0.2,0,0.3,0.1,0.4c0.1,0.1,0.3,0.2,0.4,0.2H197.3L197.3,37z M194.5,24h4.3   c1.7,0,3.1,0.3,2.8,2.6l-0.4,3.1c-0.3,2.3-1.8,2.7-3.5,2.7h-4.3L194.5,24z"
   id="path9"
   style="fill:#a6adbb;fill-opacity:1;stroke:#000000;stroke-opacity:1" />
	<path
   class="st3"
   d="M163.7,37l2.7-7.2h8.6l1.2,7.2h6.8c0.2,0,0.3-0.1,0.4-0.2c0.1-0.1,0.2-0.3,0.1-0.5l-4.2-25.9   c-0.1-0.8-0.8-1.4-1.7-1.4h-9c-0.7,0-1.3,0.4-1.5,1L156.2,37H163.7L163.7,37z M172.6,13.8l1.5,10.6h-5.6L172.6,13.8z"
   id="path10"
   style="fill:#a6adbb;fill-opacity:1;stroke:#000000;stroke-opacity:1" />
	<path
   class="st3"
   d="M137.9,36.5l1.4-11.3h1l5.5,11.4c0.1,0.2,0.3,0.3,0.5,0.3h7.8l-6.8-14.4l9.9-13.5h-8c-0.2,0-0.3,0.1-0.5,0.2   l-8,11.2h-0.9l1.4-11.4h-6.2c-0.8,0-1.6,0.6-1.7,1.5l-3.2,25.9c0,0.2,0,0.3,0.1,0.4c0.1,0.1,0.3,0.2,0.4,0.2h6.5   C137.6,37,137.9,36.8,137.9,36.5z"
   id="path11"
   style="fill:#a6adbb;fill-opacity:1;stroke:#000000;stroke-opacity:1" />
	<path
   class="st1"
   d="M111.8,36.3l1-8h1.8l4.2,8.3c0.1,0.3,0.4,0.5,0.7,0.5h5.8c0.3,0,0.6-0.1,0.7-0.4c0.2-0.3,0.2-0.5,0-0.8l-5-9.8   l8.5-15.6c0.1-0.3,0.1-0.6,0-0.8c-0.2-0.3-0.4-0.4-0.7-0.4h-5.7c-0.3,0-0.6,0.2-0.7,0.4l-7.3,14h-1.9L115,9.9c0-0.2,0-0.5-0.2-0.7   c-0.2-0.2-0.4-0.3-0.6-0.3h-5.6c-0.4,0-0.8,0.3-0.8,0.7L106,23.5h-2l-4.3-14c-0.1-0.4-0.4-0.6-0.8-0.6h-5.8c-0.3,0-0.5,0.1-0.7,0.3   c-0.2,0.2-0.2,0.5-0.1,0.7l5.1,16l-7.3,9.7C90,36,90,36.3,90.1,36.6c0.1,0.3,0.4,0.5,0.7,0.5h5.6c0.3,0,0.5-0.1,0.7-0.3l6.3-8.4   h1.9l-0.9,7.8c0,0.2,0,0.5,0.2,0.7c0.2,0.2,0.4,0.3,0.6,0.3h5.6C111.4,37,111.7,36.7,111.8,36.3z"
   id="path12"
   style="stroke:#000000;stroke-opacity:1" />
	<path
   class="st1"
   d="M65.2,9.1H59c-0.8,0-1.6,0.6-1.7,1.5L54.1,37h7.7l1.4-11.7h1.6c-1,10,2.7,11.8,10.1,12   c8.5,0,12.2-2.1,13.7-14.4c1.6-13-2-14.3-10.2-14.3c-9.4,0-11.8,3.5-13.1,11.8h-1.6L65.2,9.1L65.2,9.1z M75.7,32.6   c-2.4,0-4,0.4-2.7-9.6c1-8.4,2.1-9.5,5.1-9.5c3.4,0,3.6,3,3.1,9.5C79.9,31,79.1,32.6,75.7,32.6z"
   id="path13"
   style="stroke:#000000;stroke-opacity:1" />
</g>
</svg>
