<?xml version="1.0" encoding="UTF-8"?>
<!-- Generator: Adobe Illustrator 19.0.0, SVG Export Plug-In . SVG Version: 6.00 Build 0)  -->
<svg version="1.1" id="Слой_1" xmlns="http://www.w3.org/2000/svg" xmlns:xlink="http://www.w3.org/1999/xlink" x="0px" y="0px" viewBox="0 0 288.3 46.1" style="enable-background:new 0 0 288.3 46.1;" xml:space="preserve">
<style type="text/css">
	.st0{fill-rule:evenodd;clip-rule:evenodd;fill:#050403;}
	.st1{fill-rule:evenodd;clip-rule:evenodd;fill:#DB673B;}
	.st2{fill-rule:evenodd;clip-rule:evenodd;fill:#000001;}
	.st3{fill-rule:evenodd;clip-rule:evenodd;fill:#858584;}
</style>
<path class="st0" d="M35.7,10.9c-2.9-1.7-5.8-3-9.2-2.9c0.8,1.2,1,2.8,1,3.7C29.9,10.7,32.2,10.4,35.7,10.9L35.7,10.9z M24.8,40.9  c3-1.4,5.2-3.4,6.9-6.1c-1.5-0.1-2.8-0.6-3.8-1.2C27.7,35.2,26.6,38.6,24.8,40.9L24.8,40.9z M8.5,22.9c-2.1-1.5-3.9-3.9-4.7-6.2  c-0.3,3.2,0.3,6.2,1.9,9.1C6.4,24.6,7.3,23.6,8.5,22.9L8.5,22.9z M7.2,32.8c0.1-4.5,3.8-8.2,8.4-8.1c5.3,0.2,8.1,3.5,8.2,8.2  c0.1,5-3.8,8.1-8.3,8.2C11.2,41.1,7.2,37.6,7.2,32.8L7.2,32.8z M41.1,22.7c-0.1-4.6-3.8-8.1-8.4-8c-4.5,0.1-8,3.8-8,8.4  c0.1,4.5,3.9,8.3,8.4,8C38.6,30.8,41.3,26.7,41.1,22.7L41.1,22.7z M15.3,21c-4,0.2-8.1-3.2-8.1-8.3c0-4.5,3.8-8.1,8.3-8.1  c4.5,0,8.3,3.8,8.2,8.2C23.7,17.8,19.4,21.4,15.3,21L15.3,21z M44.8,22c0,5.2-2.1,9.2-6.9,11.6c-0.9,0.4-1.6,1.3-2.1,2.1  c-2.2,3.6-5.1,6.6-8.9,8.5c-4.4,2.2-9,2.5-13.6,0.6c-2.1-0.9-4.1-1.7-5.8-3.3c-2.8-2.8-4.2-6.1-3.7-10.1C3.8,30.7,3.4,29.8,3,29  c-2.5-4.7-3.6-9.6-2.6-15C1.6,7.6,8.6,1.7,14.4,1c2.6-0.3,5.1,0.4,7.3,1.8c1.1,0.7,2.2,1,3.6,1c4.3,0.2,8.5,1.1,12.2,3.7  C42.5,11,44.8,15.9,44.8,22z"/>
<path class="st1" d="M15.2,5C11,5,7.6,8.4,7.6,12.6c0,4.2,3.4,7.6,7.6,7.6c4.2,0,7.6-3.4,7.6-7.6C22.7,8.4,19.3,5,15.2,5L15.2,5z   M15.2,25.2c-6.9,0-12.6-5.6-12.6-12.6C2.6,5.6,8.2,0,15.2,0s12.6,5.6,12.6,12.6C27.7,19.5,22.1,25.2,15.2,25.2z"/>
<path class="st1" d="M33.4,15.1c-4.2,0-7.6,3.4-7.6,7.6c0,4.2,3.4,7.6,7.6,7.6c4.2,0,7.6-3.4,7.6-7.6C41,18.5,37.6,15.1,33.4,15.1  L33.4,15.1z M33.4,35.3c-6.9,0-12.6-5.6-12.6-12.6s5.6-12.6,12.6-12.6S46,15.7,46,22.7S40.4,35.3,33.4,35.3z"/>
<path class="st1" d="M15.5,25.6C11.4,25.6,8,29,8,33.2c0,4.2,3.4,7.6,7.6,7.6c4.2,0,7.6-3.4,7.6-7.6C23.1,29,19.7,25.6,15.5,25.6  L15.5,25.6z M15.5,45.7C8.6,45.7,3,40.1,3,33.2c0-6.9,5.6-12.6,12.6-12.6c6.9,0,12.6,5.6,12.6,12.6C28.1,40.1,22.5,45.7,15.5,45.7z"/>
<g>
	<path class="st2" d="M64.4,9.8H59c-0.3,0-0.5,0.1-0.7,0.2c-0.2,0.2-0.3,0.4-0.3,0.6l-3.1,25.7h6.3l1.4-11.7h3l-0.1,0.8   c-0.5,4.8,0.1,7.5,1.7,9.1c1.6,1.6,4.2,2,7.7,2.1c4.1,0,7-0.5,9-2.4c2.1-1.9,3.3-5.4,4-11.4c0.8-6.3,0.3-9.7-1.3-11.5   c-1.5-1.7-4.3-2-8.2-2c-4.5,0-7.3,0.8-9.1,2.6c-1.8,1.8-2.7,4.6-3.3,8.7L66,21.2h-3L64.4,9.8L64.4,9.8z M59,8.4h7l-1.4,11.4h0.2   c0.7-4,1.6-6.9,3.6-8.8c2.1-2.1,5.2-3,10-3c4.3,0,7.4,0.4,9.3,2.5c1.9,2.1,2.4,5.9,1.6,12.6c-0.8,6.3-2.2,10-4.5,12.2   c-2.3,2.2-5.5,2.8-9.9,2.8l0,0c-3.9-0.1-6.8-0.7-8.7-2.5c-1.8-1.8-2.6-4.7-2.2-9.5h-0.2l-1.4,11.7h-9.1l3.3-27.2   C56.7,9.9,57,9.4,57.4,9C57.9,8.6,58.4,8.4,59,8.4L59,8.4z M75.7,33.2h-0.3c-0.4,0-0.8,0-1.1,0c-2-0.3-3.1-1.7-2-10.3   c0.5-4.3,1.1-6.8,1.9-8.2c0.9-1.6,2.1-2,3.9-2c2.1,0,3.2,0.9,3.7,2.8c0.4,1.7,0.3,4.1,0.1,7.5l0,0c-0.6,4.1-1.1,6.5-1.9,8   C78.9,32.8,77.6,33.3,75.7,33.2L75.7,33.2z M75.4,31.9c-0.3,0-0.6,0-0.9,0c-1.2-0.1-1.8-1.3-0.8-8.8c0.5-4.1,1-6.4,1.7-7.7   c0.6-1,1.4-1.3,2.7-1.3c1.3,0,2,0.6,2.3,1.8c0.4,1.5,0.3,3.8,0,7c-0.6,3.9-1,6.2-1.8,7.5c-0.6,1.1-1.5,1.4-3,1.4L75.4,31.9   L75.4,31.9z M111.1,36.2l1-8.6h2.9l4.4,8.7c0,0,0,0,0.1,0.1c0,0,0,0,0.1,0h5.8c0,0,0.1,0,0.1,0c0,0,0,0,0.1-0.1c0,0,0,0,0-0.1   c0,0,0,0,0-0.1L120.4,26l8.7-16c0,0,0-0.1,0-0.1c0,0,0,0,0-0.1c0,0,0,0,0-0.1c0,0,0,0-0.1,0h-5.7c0,0-0.1,0-0.1,0c0,0,0,0-0.1,0.1   l-7.5,14.3h-3.1l1.8-14.4c0,0,0,0,0-0.1c0,0,0,0,0-0.1c0,0,0,0,0,0c0,0,0,0-0.1,0h-5.6c0,0-0.1,0-0.1,0c0,0,0,0.1,0,0.1l-1.8,14.4   h-3.1L99.1,9.7c0,0,0-0.1-0.1-0.1c0,0-0.1,0-0.1,0h-5.8c0,0,0,0-0.1,0c0,0,0,0-0.1,0c0,0,0,0,0,0.1c0,0,0,0,0,0.1l5.2,16.3l-7.5,10   c0,0,0,0.1,0,0.1c0,0,0,0,0,0.1c0,0,0,0.1,0.1,0.1c0,0,0,0,0.1,0h5.6c0,0,0.1,0,0.1,0c0,0,0,0,0,0l6.5-8.7h3.1l-1,8.6   c0,0,0,0,0,0.1c0,0,0,0,0,0.1c0,0,0,0,0,0c0,0,0,0,0.1,0h5.6C111,36.3,111,36.3,111.1,36.2C111.1,36.3,111.1,36.3,111.1,36.2   L111.1,36.2z M113.4,29h0.8l4.1,7.9c0.1,0.3,0.3,0.5,0.6,0.6c0.2,0.1,0.5,0.2,0.8,0.2h5.8c0.3,0,0.5-0.1,0.7-0.2   c0.2-0.1,0.4-0.3,0.6-0.5c0.1-0.2,0.2-0.5,0.2-0.7c0-0.3,0-0.5-0.2-0.8L122,26l8.3-15.3c0.1-0.2,0.2-0.5,0.2-0.8   c0-0.3-0.1-0.5-0.2-0.8c-0.1-0.2-0.3-0.4-0.6-0.6c-0.2-0.1-0.5-0.2-0.8-0.2h-5.7c-0.3,0-0.6,0.1-0.8,0.2c-0.2,0.1-0.4,0.3-0.6,0.6   l-7.1,13.6h-0.7l1.6-12.8c0-0.2,0-0.4-0.1-0.6c-0.1-0.2-0.2-0.4-0.3-0.6c-0.1-0.2-0.3-0.3-0.5-0.4c-0.2-0.1-0.4-0.1-0.6-0.1h-5.6   c-0.4,0-0.7,0.1-1,0.4c-0.3,0.2-0.5,0.6-0.5,1l-1.6,13.2h-0.8l-4.1-13.5c-0.1-0.3-0.3-0.6-0.6-0.8c-0.3-0.2-0.6-0.3-0.9-0.3h-5.8   c-0.2,0-0.5,0.1-0.7,0.2c-0.2,0.1-0.4,0.3-0.5,0.5c-0.1,0.2-0.2,0.4-0.3,0.7c0,0.2,0,0.5,0.1,0.7l5,15.6l-7.1,9.4   c-0.2,0.2-0.3,0.5-0.3,0.8c0,0.3,0,0.6,0.2,0.8c0.1,0.3,0.3,0.5,0.6,0.6c0.2,0.1,0.5,0.2,0.8,0.2h5.6c0.2,0,0.5-0.1,0.7-0.2   c0.2-0.1,0.4-0.3,0.5-0.5l6.1-8.1h0.8l-0.8,7c0,0.2,0,0.4,0.1,0.6c0.1,0.2,0.2,0.4,0.3,0.6c0.1,0.2,0.3,0.3,0.5,0.4   c0.2,0.1,0.4,0.1,0.6,0.1h5.6c0.4,0,0.7-0.1,1-0.4c0.3-0.2,0.5-0.6,0.5-1L113.4,29L113.4,29z M137.2,36.3l1.4-11.8h2.1l5.7,11.8   h6.6l-6.5-13.8l9.3-12.7h-6.5l-8.2,11.4h-2.1l1.4-11.4h-5.4c-0.3,0-0.5,0.1-0.7,0.2c-0.2,0.2-0.3,0.4-0.3,0.6L131,36.3H137.2   L137.2,36.3z M139.9,26l-1.3,10.7c0,0.3-0.2,0.6-0.4,0.8c-0.2,0.2-0.5,0.3-0.8,0.3h-6.5c-0.2,0-0.4,0-0.5-0.1   c-0.2-0.1-0.3-0.2-0.4-0.3c-0.1-0.1-0.2-0.3-0.3-0.5c-0.1-0.2-0.1-0.3,0-0.5l3.2-25.9c0.1-0.6,0.4-1.1,0.8-1.5   c0.4-0.4,1-0.6,1.6-0.6h7l-1.4,11l7.5-10.5c0.1-0.2,0.3-0.3,0.4-0.4c0.2-0.1,0.4-0.1,0.6-0.1h9.3l-10.4,14.3l7.1,15.1h-8.9   c-0.2,0-0.5-0.1-0.7-0.2c-0.2-0.1-0.4-0.3-0.5-0.5L139.9,26L139.9,26z M163.2,36.3l2.7-7.2h9.7l1.2,7.2h6l-4.2-25.8   c0-0.2-0.2-0.4-0.3-0.6c-0.2-0.1-0.4-0.2-0.6-0.2h-9c-0.2,0-0.4,0.1-0.6,0.2c-0.2,0.1-0.3,0.3-0.4,0.4l-10.5,26H163.2L163.2,36.3z    M166.9,30.6l-2.7,7.2h-9l11.3-27.9c0.2-0.5,0.5-0.8,0.9-1.1c0.4-0.3,0.8-0.4,1.3-0.4h9c0.6,0,1.1,0.2,1.5,0.6   c0.4,0.4,0.7,0.9,0.8,1.4l4.2,25.9c0,0.2,0,0.4,0,0.5c0,0.2-0.1,0.3-0.3,0.5c-0.1,0.1-0.3,0.3-0.4,0.3c-0.2,0.1-0.3,0.1-0.5,0.1   h-7.3l-1.2-7.2H166.9L166.9,30.6z M173.3,13.7l1.7,11.4h-7.4l5.4-14L173.3,13.7L173.3,13.7z M173.4,23.7h-3.8l2.7-7.2L173.4,23.7   L173.4,23.7z M197.3,36.3c2.8,0,5.4-0.4,7.3-1.4c1.8-1,3.1-2.7,3.4-5.3l0.4-3.1c0.3-2.5-0.2-4-1.3-4.9c-1.1-1-2.8-1.3-4.7-1.5   c-0.4,0-0.9-0.1-2-0.1c-1,0-2.6,0-5.3,0h-0.8l0.8-6.6h11.1l0.4-3.5H190c-0.3,0-0.5,0.1-0.7,0.2c-0.2,0.2-0.3,0.4-0.3,0.6l-3.1,25.7   H197.3L197.3,36.3z M205.3,36.1c-2.2,1.2-4.9,1.6-8,1.6h-11.6c-0.2,0-0.4,0-0.5-0.1c-0.2-0.1-0.3-0.2-0.4-0.3   c-0.1-0.1-0.2-0.3-0.3-0.5c-0.1-0.2-0.1-0.3,0-0.5l3.1-25.9c0.1-0.6,0.4-1.1,0.8-1.5c0.4-0.4,1-0.6,1.6-0.6h18.2l-0.8,6.2h-11.1   l-0.5,3.8c2.2,0,3.6,0,4.6,0.1c1.1,0,1.6,0.1,2.1,0.1h0c2.2,0.2,4.1,0.7,5.5,1.9c1.4,1.2,2.2,3.1,1.8,6.1l-0.4,3.1   C209.1,32.9,207.5,34.9,205.3,36.1L205.3,36.1z M194.5,23.3h4.3c1,0,1.9,0.1,2.5,0.5c0.7,0.5,1.2,1.3,1,2.8l-0.4,3.1   c-0.2,1.4-0.8,2.2-1.6,2.7c-0.8,0.5-1.7,0.6-2.6,0.6h-5.1l1.2-9.7H194.5L194.5,23.3z M198.8,24.7c0.7,0,1.4,0.1,1.8,0.3   c0.3,0.2,0.5,0.6,0.4,1.5l-0.4,3.1c-0.1,0.9-0.5,1.4-0.9,1.7c-0.5,0.3-1.2,0.4-1.9,0.4h-3.5l0.9-6.9H198.8L198.8,24.7z M231.4,36.3   l0.4-3.6h-12.1l1-8.1h11.1l0.5-3.7h-11.1l0.9-7.6h12.1l0.5-3.6H217c-0.2,0-0.3,0.1-0.5,0.2c-0.1,0.1-0.2,0.3-0.2,0.4l-3.2,25.8   c0,0,0,0,0,0.1c0,0,0,0,0,0.1c0,0,0,0,0,0c0,0,0,0,0.1,0H231.4L231.4,36.3z M233.3,32.1l-0.7,5.6h-19.4c-0.2,0-0.4,0-0.6-0.1   c-0.2-0.1-0.4-0.2-0.5-0.4c-0.1-0.2-0.3-0.4-0.3-0.6c-0.1-0.2-0.1-0.4-0.1-0.6l3.2-25.8c0.1-0.5,0.3-1,0.7-1.3   c0.4-0.3,0.9-0.5,1.4-0.5h19.3l-0.8,6.4h-12.1l-0.6,4.8h11.1l-0.8,6.5h-11.1l-0.7,5.3h12.1L233.3,32.1L233.3,32.1z M238.8,31.6   L238.8,31.6c-0.2,1.1-0.3,2.1-2.5,2.6l-0.3,2.3c0.7,0.1,1.2,0.2,1.6,0.2c0.4,0,0.6,0,0.9,0c1.7,0,3.3-0.3,4.4-1.2   c1.1-0.9,1.9-2.4,2.3-4.8l2.1-17.3h6.5L251,36.3h6.3l3.2-26.5h-19.1L238.8,31.6L238.8,31.6z M237.4,31.4c1.1-7.5,1.9-15.4,2.8-23   H262l-3.6,29.3h-9.1l2.8-22.9h-3.7l-2,16.1c-0.4,2.8-1.4,4.6-2.8,5.7c-1.4,1.1-3.2,1.5-5.3,1.5c-0.3,0-0.5,0-1-0.1   c-0.5,0-1.1-0.1-2.3-0.3l-0.7-0.1L235,33l0.5-0.1C237.2,32.6,237.3,32,237.4,31.4L237.4,31.4z M267.5,9.8l-3.2,26.5h11.4   c2.8,0,5.4-0.4,7.3-1.4c1.9-1,3.1-2.7,3.4-5.3l0.4-3.1c0.1-0.4,0.1-0.8,0.1-1.2c0-1.7-0.6-2.9-1.5-3.8c-1-0.9-2.6-1.4-4.4-1.7   c-0.8-0.1-1.6-0.1-2.6-0.1c-1,0-3,0.1-4.1,0.1l-0.9,0h-0.8l1.2-10H267.5L267.5,9.8z M262.8,37l3.5-28.5h9.1l-1.2,10l0.1,0   c1.2-0.1,3.2-0.1,4.1-0.1c0.9,0,1.9,0.1,2.7,0.2c2.1,0.3,3.9,0.9,5.2,2c1.3,1.1,2,2.7,2,4.9c0,0.4,0,0.9-0.1,1.3l-0.4,3.1   c-0.4,3.1-1.9,5.1-4.2,6.4c-2.2,1.2-5,1.6-8,1.6h-13L262.8,37L262.8,37z M272.7,23.3h4.4c0.9,0,1.8,0.1,2.5,0.6   c0.7,0.5,1.1,1.3,0.9,2.8l-0.4,3.1c-0.2,1.4-0.8,2.2-1.5,2.7c-0.8,0.5-1.6,0.6-2.5,0.6h-5.2l1.2-9.7H272.7L272.7,23.3z M277.1,24.7   c0.7,0,1.3,0.1,1.7,0.3c0.3,0.2,0.5,0.6,0.3,1.5l-0.4,3.1c-0.1,0.9-0.5,1.4-0.9,1.7c-0.5,0.3-1.1,0.4-1.8,0.4h-3.6l0.9-6.9H277.1z"/>
	<path class="st3" d="M266.9,9.1L263.5,37h12.2c5.9,0,10.8-1.5,11.5-7.3l0.4-3.1c0.7-5.6-3.2-7.6-9.1-7.6c-1.4,0-4.8,0.2-5,0.2   l1.2-10H266.9L266.9,9.1z M272.7,24h4.4c1.6,0,3,0.3,2.7,2.6l-0.4,3.1c-0.3,2.3-1.8,2.7-3.4,2.7h-4.4L272.7,24z"/>
	<path class="st3" d="M238.1,31.5c-0.1,0.9-0.2,1.8-2.4,2.1l-0.4,3.5c2.3,0.4,2.7,0.4,3.2,0.4c3.8,0,6.7-1.3,7.4-6.6l2.1-16.7h5.1   L250.2,37h7.7l3.4-27.9h-20.5L238.1,31.5z"/>
	<path class="st3" d="M232,37l0.6-5h-12.1l0.8-6.7h11.1l0.6-5.1H222l0.8-6.2h12.1l0.6-5H217c-0.7,0-1.3,0.5-1.4,1.2l-3.2,25.8   c0,0.2,0,0.5,0.2,0.7c0.2,0.2,0.4,0.3,0.6,0.3H232z"/>
	<path class="st3" d="M197.3,37c5.8,0,10.7-1.5,11.4-7.3l0.4-3.1c0.7-5.5-2.6-6.8-6.7-7.2c-0.9-0.1-2.1-0.2-7.4-0.2l0.6-5.2h11.1   l0.6-4.9H190c-0.9,0-1.6,0.6-1.7,1.5l-3.1,25.9c0,0.2,0,0.3,0.1,0.4c0.1,0.1,0.3,0.2,0.4,0.2H197.3L197.3,37z M194.5,24h4.3   c1.7,0,3.1,0.3,2.8,2.6l-0.4,3.1c-0.3,2.3-1.8,2.7-3.5,2.7h-4.3L194.5,24z"/>
	<path class="st3" d="M163.7,37l2.7-7.2h8.6l1.2,7.2h6.8c0.2,0,0.3-0.1,0.4-0.2c0.1-0.1,0.2-0.3,0.1-0.5l-4.2-25.9   c-0.1-0.8-0.8-1.4-1.7-1.4h-9c-0.7,0-1.3,0.4-1.5,1L156.2,37H163.7L163.7,37z M172.6,13.8l1.5,10.6h-5.6L172.6,13.8z"/>
	<path class="st3" d="M137.9,36.5l1.4-11.3h1l5.5,11.4c0.1,0.2,0.3,0.3,0.5,0.3h7.8l-6.8-14.4l9.9-13.5h-8c-0.2,0-0.3,0.1-0.5,0.2   l-8,11.2h-0.9l1.4-11.4h-6.2c-0.8,0-1.6,0.6-1.7,1.5l-3.2,25.9c0,0.2,0,0.3,0.1,0.4c0.1,0.1,0.3,0.2,0.4,0.2h6.5   C137.6,37,137.9,36.8,137.9,36.5z"/>
	<path class="st1" d="M111.8,36.3l1-8h1.8l4.2,8.3c0.1,0.3,0.4,0.5,0.7,0.5h5.8c0.3,0,0.6-0.1,0.7-0.4c0.2-0.3,0.2-0.5,0-0.8l-5-9.8   l8.5-15.6c0.1-0.3,0.1-0.6,0-0.8c-0.2-0.3-0.4-0.4-0.7-0.4h-5.7c-0.3,0-0.6,0.2-0.7,0.4l-7.3,14h-1.9L115,9.9c0-0.2,0-0.5-0.2-0.7   c-0.2-0.2-0.4-0.3-0.6-0.3h-5.6c-0.4,0-0.8,0.3-0.8,0.7L106,23.5h-2l-4.3-14c-0.1-0.4-0.4-0.6-0.8-0.6h-5.8c-0.3,0-0.5,0.1-0.7,0.3   c-0.2,0.2-0.2,0.5-0.1,0.7l5.1,16l-7.3,9.7C90,36,90,36.3,90.1,36.6c0.1,0.3,0.4,0.5,0.7,0.5h5.6c0.3,0,0.5-0.1,0.7-0.3l6.3-8.4   h1.9l-0.9,7.8c0,0.2,0,0.5,0.2,0.7c0.2,0.2,0.4,0.3,0.6,0.3h5.6C111.4,37,111.7,36.7,111.8,36.3z"/>
	<path class="st1" d="M65.2,9.1H59c-0.8,0-1.6,0.6-1.7,1.5L54.1,37h7.7l1.4-11.7h1.6c-1,10,2.7,11.8,10.1,12   c8.5,0,12.2-2.1,13.7-14.4c1.6-13-2-14.3-10.2-14.3c-9.4,0-11.8,3.5-13.1,11.8h-1.6L65.2,9.1L65.2,9.1z M75.7,32.6   c-2.4,0-4,0.4-2.7-9.6c1-8.4,2.1-9.5,5.1-9.5c3.4,0,3.6,3,3.1,9.5C79.9,31,79.1,32.6,75.7,32.6z"/>
</g>
</svg>